<?xml version="1.0" encoding="UTF-8"?>
<!DOCTYPE svg PUBLIC "-//W3C//DTD SVG 1.1//EN" "http://www.w3.org/Graphics/SVG/1.1/DTD/svg11.dtd">
<svg version="1.1" xmlns="http://www.w3.org/2000/svg" xmlns:xlink="http://www.w3.org/1999/xlink" x="0" y="0" width="1547" height="980" viewBox="0, 0, 1547, 980">
  <defs>
    <linearGradient id="Gradient_1" gradientUnits="userSpaceOnUse" x1="1132.19" y1="414.077" x2="1290.36" y2="414.077">
      <stop offset="0" stop-color="#1B1715"/>
      <stop offset="1" stop-color="#353533"/>
    </linearGradient>
    <linearGradient id="Gradient_2" gradientUnits="userSpaceOnUse" x1="1487.98" y1="482.934" x2="1487.98" y2="6.371">
      <stop offset="0" stop-color="#1B1715"/>
      <stop offset="1" stop-color="#545352"/>
    </linearGradient>
    <linearGradient id="Gradient_3" gradientUnits="userSpaceOnUse" x1="1356.22" y1="482.875" x2="1356.22" y2="6.413">
      <stop offset="0" stop-color="#1B1715"/>
      <stop offset="1" stop-color="#545352"/>
    </linearGradient>
    <linearGradient id="Gradient_4" gradientUnits="userSpaceOnUse" x1="599.113" y1="737.253" x2="599.113" y2="635.179">
      <stop offset="0" stop-color="#353533"/>
      <stop offset="0.898" stop-color="#1B1715"/>
      <stop offset="1" stop-color="#1B1715"/>
    </linearGradient>
    <linearGradient id="Gradient_5" gradientUnits="userSpaceOnUse" x1="303.341" y1="-95.181" x2="894.885" y2="749.632">
      <stop offset="0" stop-color="#A5A7A6"/>
      <stop offset="0.342" stop-color="#A5A7A6"/>
      <stop offset="0.898" stop-color="#545352"/>
      <stop offset="1" stop-color="#545352"/>
    </linearGradient>
    <linearGradient id="Gradient_6" gradientUnits="userSpaceOnUse" x1="303.829" y1="-72.481" x2="497.625" y2="263.183">
      <stop offset="0" stop-color="#A5A7A6"/>
      <stop offset="0.396" stop-color="#E8E7E2"/>
      <stop offset="1" stop-color="#A5A7A6"/>
    </linearGradient>
  </defs>
  <g id="Layer_1">
    <path d="M1292.3,14.418 L1542.46,14.418 L1542.46,816.607 L1292.3,816.607 z" fill="#353433"/>
    <path d="M1292.3,14.418 L1542.46,14.418 L1542.46,816.607 L1292.3,816.607 z" fill-opacity="0" stroke="#545452" stroke-width="3.88"/>
    <path d="M1132.19,760.935 L1290.36,815.65 L1290.36,12.504 L1132.19,43.77 L1132.19,760.935 z" fill="url(#Gradient_1)"/>
    <path d="M1449.33,566.197 C1449.33,578.113 1439.67,587.771 1427.75,587.771 C1415.83,587.771 1406.18,578.113 1406.18,566.197 C1406.18,554.276 1415.83,544.621 1427.75,544.621 C1439.67,544.621 1449.33,554.276 1449.33,566.197" fill="#CFD0CC"/>
    <path d="M1449.33,566.197 C1449.33,578.113 1439.67,587.771 1427.75,587.771 C1415.83,587.771 1406.18,578.113 1406.18,566.197 C1406.18,554.276 1415.83,544.621 1427.75,544.621 C1439.67,544.621 1449.33,554.276 1449.33,566.197 z" fill-opacity="0" stroke="#A5A7A6" stroke-width="5.447" stroke-linecap="round" stroke-linejoin="round"/>
    <path d="M1292.31,10.358 C1296.32,6.413 1303.38,6.413 1303.38,6.413 L1527.27,6.413 C1527.27,6.413 1536.18,5.677 1540.3,10.358 C1544.42,15.038 1544.33,24.899 1544.33,24.899 L1544.33,464.738 C1544.33,464.738 1545.26,477.812 1540.3,482.617 C1535.34,487.419 1527.27,486.562 1527.27,486.562 L1304.39,486.562 C1304.39,486.562 1296.34,486.687 1292.31,482.617 C1288.27,478.546 1288.27,470.654 1288.27,470.654 L1288.27,23.914 C1288.27,23.914 1288.29,14.302 1292.31,10.358" fill="#353433"/>
    <path d="M1292.31,10.358 C1296.32,6.413 1303.38,6.413 1303.38,6.413 L1527.27,6.413 C1527.27,6.413 1536.18,5.677 1540.3,10.358 C1544.42,15.038 1544.33,24.899 1544.33,24.899 L1544.33,464.738 C1544.33,464.738 1545.26,477.812 1540.3,482.617 C1535.34,487.419 1527.27,486.562 1527.27,486.562 L1304.39,486.562 C1304.39,486.562 1296.34,486.687 1292.31,482.617 C1288.27,478.546 1288.27,470.654 1288.27,470.654 L1288.27,23.914 C1288.27,23.914 1288.29,14.302 1292.31,10.358 z" fill-opacity="0" stroke="#545452" stroke-width="1.947"/>
    <path d="M1530.209,6.375 C1534.6,6.306 1539.161,7.16 1542.39,10.327 C1545.559,14.32 1546.306,19.681 1546.42,24.645 L1546.42,461.218 C1546.42,461.218 1545.41,474.192 1540.45,478.96 C1535.49,483.727 1529.36,482.875 1529.36,482.875 L1429.54,482.875 L1429.54,6.412 L1529.36,6.412 C1529.71,6.387 1529.427,6.406 1530.209,6.375 z" fill="url(#Gradient_2)"/>
    <path d="M1294.39,10.327 C1298.41,6.412 1305.47,6.412 1305.47,6.412 L1422.08,6.412 L1422.08,482.875 L1306.48,482.875 C1306.48,482.875 1298.42,483 1294.39,478.96 C1290.36,474.919 1290.36,467.089 1290.36,467.089 L1290.36,23.779 C1290.36,23.779 1290.37,14.241 1294.39,10.327 z" fill="url(#Gradient_3)"/>
    <path d="M939.017,768.037 C939.017,773.394 934.53,774.103 900.55,774.103 L297.676,774.103 C263.704,774.103 259.21,773.394 259.21,768.037 C310.866,752.38 362.408,736.23 414.223,721.128 C462.421,707.082 535.429,707.697 585.187,708.589 C633.296,709.451 648.476,708.33 696.591,708.9 C767.465,709.74 848.095,742.392 915.979,761.556 C923.656,763.724 931.342,765.871 939.017,768.037" fill="#2D2B29"/>
    <path d="M939.017,781.863 L259.21,781.863 L261.15,769.976 L937.077,769.976 L939.017,781.863" fill="#1A1715"/>
    <path d="M939.017,781.863 L259.21,781.863 L261.15,769.976 L937.077,769.976 L939.017,781.863 z" fill-opacity="0" stroke="#1A1715" stroke-width="3.88" stroke-linecap="round" stroke-linejoin="round"/>
    <path d="M664.859,737.253 L533.367,737.253 L553.537,644.994 C553.537,636.32 554.139,635.179 558.693,635.179 L639.533,635.179 C644.092,635.179 644.693,636.32 644.693,644.994 L664.859,737.253 z" fill="url(#Gradient_4)"/>
    <path d="M1113.21,605.322 C1113.21,656.748 1106.44,663.522 1055.01,663.522 L143.211,663.522 C91.786,663.522 85.011,656.748 85.011,605.322 L85.011,58.242 C85.011,6.817 91.786,0.042 143.211,0.042 L1055.01,0.042 C1106.44,0.042 1113.21,6.817 1113.21,58.242 L1113.21,605.322" fill="#353433"/>
    <path d="M116.639,35.549 L1081.59,35.549 L1081.59,618.902 L116.639,618.902 z" fill="url(#Gradient_5)"/>
    <path d="M572.475,632.224 L625.756,632.224 L625.756,645.896 L572.475,645.896 z" fill="#7E7F7F"/>
    <path d="M116.712,483.102 L116.712,35.549 L874.082,35.549 L116.712,483.102 z" fill="url(#Gradient_6)"/>
    <g>
      <path d="M1229.33,946.89 L0.155,946.89 C0.155,946.89 -0,980 37.042,980 L1192.44,980 C1231.79,980 1229.33,946.89 1229.33,946.89" fill="#1A1715"/>
      <path d="M1222.5,936.027 C1203.93,915.945 1086.19,804.623 1086.19,804.623 C1086.19,804.623 1070.09,800.486 1049.89,800.486 L182.186,800.486 C161.986,800.486 145.886,804.623 145.886,804.623 C145.886,804.623 28.145,915.945 9.579,936.027 C-8.973,956.109 -3.319,959.566 51.016,959.566 L1181.06,959.566 C1235.4,959.566 1241.05,956.109 1222.5,936.027" fill="#353433"/>
    </g>
    <path d="M459.373,851.589 L490.158,851.589 L494.634,829.57 L465.781,829.57 C465.762,829.826 465.714,830.082 465.638,830.337 L459.373,851.589" fill="#777776"/>
    <path d="M498.078,851.589 L532.007,851.589 L534.731,829.57 L502.506,829.57 C502.494,829.718 502.492,829.865 502.462,830.013 L498.078,851.589" fill="#777776"/>
    <path d="M334.707,851.589 L367.92,851.589 L376.873,829.57 L344.82,829.57 C344.781,830.017 344.678,830.466 344.475,830.896 L334.707,851.589" fill="#777776"/>
    <path d="M539.828,851.589 L575.142,851.589 L576.24,829.57 L542.539,829.57 C542.533,829.619 542.541,829.669 542.535,829.718 L539.828,851.589" fill="#777776"/>
    <path d="M290.907,851.589 L326.125,851.589 L336.52,829.57 L301.984,829.57 C301.943,830.064 301.806,830.558 301.564,831.025 L290.907,851.589" fill="#777776"/>
    <path d="M666.553,851.589 L702.484,851.589 L699.171,829.57 L664.888,829.57 L666.553,851.589" fill="#777776"/>
    <path d="M707.019,829.57 L710.332,851.589 L745.288,851.589 L738.827,830.371 C738.746,830.105 738.698,829.835 738.674,829.57 L707.019,829.57" fill="#777776"/>
    <path d="M658.772,851.589 L657.141,830.042 C657.13,829.88 657.145,829.728 657.152,829.57 L623.225,829.57 L623.225,851.589 L658.772,851.589" fill="#777776"/>
    <path d="M615.465,851.589 L615.465,829.57 L584.008,829.57 L582.909,851.589 L615.465,851.589" fill="#777776"/>
    <path d="M232.989,859.349 L202.398,859.349 L183.58,882.306 L217.672,882.306 L232.989,859.349" fill="#777776"/>
    <path d="M711.501,859.349 L714.954,882.306 L754.639,882.306 L747.65,859.349 L711.501,859.349" fill="#777776"/>
    <path d="M262.226,890.066 L221.825,890.066 L202.12,919.603 L247.083,919.603 C247.155,919.277 247.253,918.955 247.415,918.644 L262.226,890.066" fill="#777776"/>
    <path d="M307.96,890.066 L270.963,890.066 L255.656,919.603 L294.275,919.603 C294.319,919.175 294.417,918.75 294.611,918.341 L307.96,890.066" fill="#777776"/>
    <path d="M757.002,890.066 L716.123,890.066 L720.568,919.603 L765.995,919.603 L757.002,890.066" fill="#777776"/>
    <path d="M173.546,882.306 L192.365,859.349 L152.218,859.349 C151.591,859.349 151.005,859.185 150.48,858.919 L127.498,882.306 L173.546,882.306" fill="#777776"/>
    <path d="M413.139,859.349 L405.5,882.306 L442.227,882.306 L448.996,859.349 L413.139,859.349" fill="#777776"/>
    <path d="M212.494,890.066 L177.218,890.066 L153.01,919.603 L193.119,919.603 C193.219,919.142 193.397,918.691 193.674,918.275 L212.494,890.066" fill="#777776"/>
    <path d="M238.167,851.589 L252.857,829.57 L226.465,829.57 C226.319,830.007 226.103,830.429 225.794,830.806 L208.758,851.589 L238.167,851.589" fill="#777776"/>
    <path d="M282.167,851.589 L293.58,829.57 L262.19,829.57 L247.498,851.589 L282.167,851.589" fill="#777776"/>
    <path d="M422.748,830.466 L415.719,851.589 L451.285,851.589 L457.775,829.57 L420.057,829.57 L422.748,830.466" fill="#777776"/>
    <path d="M796.072,857.968 C795.36,858.804 794.313,859.349 793.127,859.349 L755.761,859.349 L762.75,882.306 L807.659,882.306 L796.072,857.968" fill="#777776"/>
    <path d="M198.725,851.589 L216.774,829.57 L179.327,829.57 L157.688,851.589 L198.725,851.589" fill="#777776"/>
    <path d="M746.693,829.57 L753.398,851.589 L793.035,851.589 L782.553,829.57 L746.693,829.57" fill="#777776"/>
    <path d="M703.653,859.349 L667.141,859.349 L668.878,882.306 L707.109,882.306 L703.653,859.349" fill="#777776"/>
    <path d="M582.521,859.349 L581.434,881.14 C581.412,881.552 581.314,881.939 581.176,882.306 L615.465,882.306 L615.465,859.349 L582.521,859.349" fill="#777776"/>
    <path d="M659.359,859.349 L623.225,859.349 L623.225,882.306 L661.097,882.306 L659.359,859.349" fill="#777776"/>
    <path d="M708.276,890.066 L669.465,890.066 L671.7,919.603 L712.723,919.603 L708.276,890.066" fill="#777776"/>
    <path d="M810.265,890.066 L765.112,890.066 L774.013,919.298 C774.043,919.4 774.051,919.501 774.073,919.603 L825.415,919.603 L811.282,889.916 C810.956,890.003 810.619,890.066 810.265,890.066" fill="#777776"/>
    <path d="M167.185,890.066 L123.971,890.066 C122.837,890.066 121.828,889.572 121.117,888.796 L90.843,919.603 L142.977,919.603 L167.185,890.066" fill="#777776"/>
    <path d="M661.684,890.066 L623.225,890.066 L623.225,919.603 L663.918,919.603 L661.684,890.066" fill="#777776"/>
    <path d="M364.766,859.349 L331.043,859.349 L320.204,882.306 L355.43,882.306 L364.766,859.349" fill="#777776"/>
    <path d="M404.96,859.349 L373.141,859.349 L363.805,882.306 L397.321,882.306 L404.96,859.349" fill="#777776"/>
    <path d="M528.334,881.279 L531.047,859.349 L496.502,859.349 L491.838,882.306 L528.359,882.306 C528.311,881.972 528.29,881.63 528.334,881.279" fill="#777776"/>
    <path d="M322.462,859.349 L286.885,859.349 L274.985,882.306 L311.624,882.306 L322.462,859.349" fill="#777776"/>
    <path d="M227.003,882.306 L266.248,882.306 L278.146,859.349 L242.32,859.349 L227.003,882.306" fill="#777776"/>
    <path d="M484.188,880.984 L488.582,859.349 L457.084,859.349 L450.314,882.306 L484.162,882.306 C484.102,881.876 484.096,881.433 484.188,880.984" fill="#777776"/>
    <path d="M615.465,890.066 L445.141,890.066 C445.137,890.066 445.133,890.068 445.129,890.068 C445.126,890.068 445.12,890.066 445.116,890.066 L316.54,890.066 L302.596,919.603 L615.465,919.603 L615.465,890.066" fill="#777776"/>
    <path d="M384.789,830.701 L376.295,851.589 L407.542,851.589 L414.868,829.57 L382.006,829.57 L384.789,830.701" fill="#777776"/>
    <path d="M573.686,880.753 L574.754,859.349 L538.869,859.349 L536.037,882.232 C536.033,882.257 536.023,882.281 536.02,882.306 L573.928,882.306 C573.748,881.826 573.656,881.3 573.686,880.753" fill="#777776"/>
    <path d="M860.416,847.603 L848.811,831.291 L823.689,831.291 L834.649,847.603 L860.416,847.603" fill="#777776"/>
    <path d="M868.068,844.97 C868.635,845.767 868.842,846.701 868.751,847.603 L891.358,847.603 L879.818,831.382 C879.798,831.353 879.786,831.32 879.766,831.291 L858.334,831.291 L868.068,844.97" fill="#777776"/>
    <path d="M889.276,831.291 L900.685,847.324 C900.747,847.414 900.789,847.509 900.844,847.603 L928.173,847.603 L914.92,831.291 L889.276,831.291" fill="#777776"/>
    <path d="M895.257,914.57 L883.182,894.378 L856.114,894.378 L867.8,914.57 L895.257,914.57" fill="#777776"/>
    <path d="M903.639,913.466 C903.849,913.818 903.978,914.191 904.066,914.57 L926.466,914.57 L915.051,895.482 C914.841,895.13 914.712,894.757 914.623,894.378 L892.224,894.378 L903.639,913.466" fill="#777776"/>
    <path d="M923.433,894.378 L935.508,914.57 L961.854,914.57 L947.726,894.378 L923.433,894.378" fill="#777776"/>
    <path d="M1008.09,846.552 L1037.68,846.552 L1022.38,828.759 L995.201,828.759 L1008.09,846.552" fill="#777776"/>
    <path d="M1004.14,854.312 L969.555,854.312 L985.511,877.736 L1021.11,877.736 L1004.14,854.312" fill="#777776"/>
    <path d="M1087.28,854.312 L1054.59,854.312 L1074.74,877.736 L1109.63,877.736 L1087.28,854.312" fill="#777776"/>
    <path d="M1013.72,854.312 L1030.7,877.736 L1064.5,877.736 L1044.36,854.312 L1013.72,854.312" fill="#777776"/>
    <path d="M1071.18,885.498 L1036.32,885.498 L1060.45,918.791 L1099.81,918.791 L1071.18,885.498" fill="#777776"/>
    <path d="M1081.41,885.498 L1110.04,918.791 L1148.78,918.791 L1117.03,885.498 L1081.41,885.498" fill="#777776"/>
    <path d="M1050.86,918.791 L1026.74,885.498 L990.798,885.498 L1013.48,918.791 L1050.86,918.791" fill="#777776"/>
    <path d="M1032.61,828.759 L1047.92,846.552 L1079.88,846.552 L1062.91,828.759 L1032.61,828.759" fill="#777776"/>
    <path d="M998.513,846.552 L987.051,830.738 C986.615,830.134 986.39,829.449 986.337,828.759 L952.147,828.759 L964.269,846.552 L998.513,846.552" fill="#777776"/>
    <path d="M1110.04,918.791 L1081.41,885.498 L1117.03,885.498 L1148.78,918.791 L1110.04,918.791 z M1026.74,885.498 L1050.86,918.791 L1013.48,918.791 L990.798,885.498 L1026.74,885.498 z M986.337,828.759 C986.39,829.449 986.615,830.134 987.051,830.738 L998.513,846.552 L964.269,846.552 L952.147,828.759 L986.337,828.759 z M1047.92,846.552 L1032.61,828.759 L1062.91,828.759 L1079.88,846.552 L1047.92,846.552 z M1054.59,854.312 L1087.28,854.312 L1109.63,877.736 L1074.74,877.736 L1054.59,854.312 z M1022.38,828.759 L1037.68,846.552 L1008.09,846.552 L995.201,828.759 L1022.38,828.759 z M969.555,854.312 L1004.14,854.312 L1021.11,877.736 L985.511,877.736 L969.555,854.312 z M1030.7,877.736 L1013.72,854.312 L1044.36,854.312 L1064.5,877.736 L1030.7,877.736 z M1060.45,918.791 L1036.32,885.498 L1071.18,885.498 L1099.81,918.791 L1060.45,918.791 z M1160.65,919.992 L1067.38,822.201 C1066.65,821.433 1065.63,821 1064.57,821 L944.811,821 C943.372,821 942.052,821.794 941.381,823.066 C940.709,824.337 940.794,825.876 941.603,827.064 L1008.22,924.855 C1008.94,925.917 1010.14,926.55 1011.43,926.55 L1157.85,926.55 C1159.4,926.55 1160.8,925.625 1161.41,924.199 C1162.02,922.771 1161.73,921.119 1160.65,919.992" fill="#353433"/>
  </g>
</svg>
